<?xml version="1.0" encoding="UTF-8" standalone="no"?>
<svg
   xmlns:dc="http://purl.org/dc/elements/1.1/"
   xmlns:cc="http://creativecommons.org/ns#"
   xmlns:rdf="http://www.w3.org/1999/02/22-rdf-syntax-ns#"
   xmlns:svg="http://www.w3.org/2000/svg"
   xmlns="http://www.w3.org/2000/svg"
   xmlns:sodipodi="http://sodipodi.sourceforge.net/DTD/sodipodi-0.dtd"
   xmlns:inkscape="http://www.inkscape.org/namespaces/inkscape"
   height="24"
   viewBox="0 0 24 24"
   width="24"
   version="1.1"
   id="svg14"
   sodipodi:docname="settings_input_hdmi-24px.svg"
   inkscape:version="1.0.1 (c497b03c, 2020-09-10)"
   inkscape:export-filename="/Users/georg/Rastergrafik.png"
   inkscape:export-xdpi="256"
   inkscape:export-ydpi="256">
  <metadata
     id="metadata20">
    <rdf:RDF>
      <cc:Work
         rdf:about="">
        <dc:format>image/svg+xml</dc:format>
        <dc:type
           rdf:resource="http://purl.org/dc/dcmitype/StillImage" />
      </cc:Work>
    </rdf:RDF>
  </metadata>
  <defs
     id="defs18">
    <filter
       inkscape:collect="always"
       style="color-interpolation-filters:sRGB"
       id="filter904"
       x="-0.039195671"
       width="1.0783913"
       y="-0.027436968"
       height="1.0548739">
      <feGaussianBlur
         inkscape:collect="always"
         stdDeviation="0.21491649"
         id="feGaussianBlur906" />
    </filter>
  </defs>
  <sodipodi:namedview
     pagecolor="#ffffff"
     bordercolor="#666666"
     borderopacity="1"
     objecttolerance="10"
     gridtolerance="10"
     guidetolerance="10"
     inkscape:pageopacity="0"
     inkscape:pageshadow="2"
     inkscape:window-width="1122"
     inkscape:window-height="716"
     id="namedview16"
     showgrid="false"
     inkscape:zoom="9.162384"
     inkscape:cx="12"
     inkscape:cy="12"
     inkscape:window-x="0"
     inkscape:window-y="25"
     inkscape:window-maximized="0"
     inkscape:current-layer="svg14" />
  <path
     d="M 17.639832,7.3001402 V 4.4802244 c 0,-1.0339691 -0.845974,-1.8799439 -1.879943,-1.8799439 H 8.240112 c -1.033969,0 -1.879943,0.8459748 -1.879943,1.8799439 V 7.3001402 H 5.420197 v 5.6398308 l 2.819915,5.639832 v 2.819916 h 7.519777 v -2.819916 l 2.819914,-5.639832 V 7.3001402 Z M 8.240112,4.4802244 h 7.519777 V 7.3001402 H 13.879944 V 5.4201964 H 12.939973 V 7.3001402 H 11.060029 V 5.4201964 H 10.120056 V 7.3001402 H 8.240112 Z"
     id="path12-9"
     style="fill:#000000;fill-opacity:1;stroke-width:0.939972;filter:url(#filter904);opacity:0.50113895" />
  <path
     d="M0 0h24v24H0z"
     fill="none"
     id="path10" />
  <path
     d="M 17.639831,7.3001402 V 4.4802243 c 0,-1.033969 -0.845974,-1.8799438 -1.879943,-1.8799438 H 8.2401124 c -1.0339692,0 -1.8799439,0.8459748 -1.8799439,1.8799438 v 2.8199159 h -0.939972 v 5.6398318 l 2.8199159,5.639832 v 2.819916 h 7.5197756 v -2.819916 l 2.819915,-5.639832 V 7.3001402 Z M 8.2401124,4.4802243 H 15.759888 V 7.3001402 H 13.879944 V 5.4201964 H 12.939973 V 7.3001402 H 11.060029 V 5.4201964 H 10.120056 V 7.3001402 H 8.2401124 Z"
     id="path12"
     style="stroke-width:0.939972;fill:#f0f0f0;fill-opacity:1" />
</svg>
